<?xml version="1.0" encoding="utf-8"?>
<!-- Generator: Adobe Illustrator 24.3.0, SVG Export Plug-In . SVG Version: 6.00 Build 0)  -->
<svg version="1.1" id="Layer_1" xmlns="http://www.w3.org/2000/svg" xmlns:xlink="http://www.w3.org/1999/xlink" x="0px" y="0px"
	 viewBox="0 0 113.92 52.97" style="enable-background:new 0 0 113.92 52.97;" xml:space="preserve">
<style type="text/css">
	.st0{fill:#FFFFFF;}
	.st1{fill:url(#SVGID_1_);}
	.st2{fill:url(#SVGID_2_);}
	.st3{fill:url(#SVGID_3_);}
	.st4{fill:url(#SVGID_4_);}
	.st5{fill:none;}
	.st6{fill:url(#SVGID_5_);}
	.st7{fill:url(#SVGID_6_);}
	.st8{fill:url(#SVGID_7_);}
	.st9{fill:url(#SVGID_8_);}
	.st10{fill:url(#SVGID_9_);}
	.st11{fill:url(#SVGID_10_);}
	.st12{fill:url(#SVGID_11_);}
	.st13{fill:url(#SVGID_12_);}
</style>
<g>
	<path class="st0" d="M3.4,33.96c0.3-1.92,0.55-3.84,0.74-5.75c0.1-0.96,0.16-1.91,0.18-2.86c0.01-0.48,0-0.94-0.04-1.38
		c-0.02-0.23-0.06-0.45-0.11-0.66c-0.02-0.1-0.05-0.19-0.07-0.27C4.09,23,4.08,22.98,4.07,22.96c-0.01-0.02-0.02-0.04-0.04-0.05
		c-0.15-0.17-0.19-0.36-0.14-0.55c0.05-0.19,0.19-0.34,0.41-0.45c0.24-0.11,0.49-0.14,0.73-0.1c0.25,0.04,0.45,0.14,0.61,0.31
		c0.16,0.21,0.25,0.39,0.29,0.55c0.05,0.16,0.08,0.3,0.11,0.44c0.04,0.27,0.06,0.54,0.07,0.79c0.01,0.51-0.01,1.01-0.05,1.51
		c-0.07,0.98-0.18,1.95-0.33,2.92c-0.3,1.94-0.65,3.86-1.03,5.78c-0.08,0.43-0.17,0.86-0.27,1.29c-0.02,0.14-0.05,0.28-0.07,0.42
		c0.43-1.51,0.92-3,1.45-4.49c0.06-0.16,0.12-0.33,0.18-0.49c0.28-0.78,0.58-1.55,0.92-2.32c0.39-0.93,0.86-1.85,1.41-2.75
		c0.28-0.45,0.6-0.89,0.98-1.31c0.37-0.44,0.86-0.84,1.45-1.19c0.3-0.18,0.65-0.33,1.05-0.44c0.4-0.1,0.81-0.14,1.25-0.12
		c0.47,0.03,0.9,0.15,1.3,0.36c0.37,0.21,0.67,0.44,0.89,0.7c0.42,0.51,0.71,1.03,0.85,1.55c0.16,0.52,0.27,1.04,0.33,1.55
		c0.08,1.02,0.05,2.04-0.11,3.04c-0.05,0.27-0.1,0.53-0.16,0.79c1.58-0.48,3.18-0.93,4.81-1.33c0.05-0.01,0.09,0,0.14,0.01
		c0.04,0.02,0.08,0.05,0.1,0.08c0.01,0.04,0.01,0.07-0.02,0.1c-0.02,0.03-0.06,0.06-0.11,0.08c-1.22,0.28-2.42,0.61-3.6,0.99
		c-0.47,0.15-0.94,0.3-1.41,0.45c-0.14,0.6-0.34,1.19-0.58,1.77c-0.37,0.98-0.92,1.91-1.65,2.81c-0.36,0.45-0.81,0.86-1.36,1.25
		c-0.57,0.41-1.27,0.67-2.12,0.77c-0.42,0.03-0.84-0.01-1.25-0.12c-0.42-0.12-0.77-0.32-1.05-0.59c-0.25-0.28-0.4-0.58-0.43-0.88
		c-0.02-0.15-0.03-0.29-0.02-0.42c0-0.05,0.01-0.09,0.02-0.14c0.01-0.11,0.04-0.21,0.07-0.32c0.25-0.56,0.63-1.01,1.14-1.36
		c0.48-0.36,0.99-0.69,1.54-0.96c1.1-0.55,2.23-1.02,3.4-1.42c0.01-0.01,0.03-0.01,0.05-0.01c0.01-0.01,0.02-0.01,0.04-0.01
		c0.17-0.58,0.29-1.15,0.38-1.73c0.17-0.92,0.23-1.84,0.18-2.75c-0.02-0.46-0.08-0.9-0.18-1.33c-0.11-0.44-0.28-0.82-0.51-1.15
		c-0.12-0.16-0.25-0.28-0.4-0.37c-0.06-0.05-0.13-0.08-0.2-0.1c-0.07-0.02-0.16-0.04-0.25-0.06c-0.42-0.05-0.86,0.02-1.3,0.23
		c-0.45,0.22-0.86,0.51-1.23,0.86c-0.37,0.36-0.72,0.74-1.03,1.15c-1.21,1.65-2.15,3.42-2.84,5.29c-0.71,1.85-1.31,3.73-1.81,5.62
		c-1.01,3.78-1.9,7.58-2.66,11.41C2,48.56,1.98,48.63,1.97,48.7c-0.18,0.89-0.38,1.77-0.6,2.66c-0.06,0.24-0.13,0.48-0.22,0.73
		c-0.04,0.12-0.08,0.24-0.13,0.37c-0.02,0.05-0.05,0.12-0.09,0.19c-0.01,0-0.02,0-0.02,0.01c-0.01,0.03-0.04,0.06-0.07,0.11
		c-0.01,0.01-0.03,0.02-0.04,0.04c-0.02,0.02-0.03,0.03-0.05,0.04c-0.04,0.03-0.07,0.05-0.11,0.07c-0.01,0.01-0.04,0.02-0.08,0.03
		c-0.04,0.01-0.08,0.01-0.12,0.01c-0.02,0.01-0.06,0.01-0.1-0.01c-0.04-0.01-0.09-0.03-0.14-0.06c-0.05-0.02-0.09-0.05-0.12-0.07
		c-0.03-0.02-0.05-0.04-0.06-0.05c-0.01-0.01-0.01-0.02,0-0.02c0-0.02,0-0.03-0.01-0.04s-0.01-0.02-0.01-0.03v-0.01
		c0-0.02,0-0.03-0.01-0.04C0,52.63,0,52.62,0,52.61v-0.01c0-0.05,0.01-0.08,0.02-0.11l0.02-0.19l0.04-0.37L0.2,51.2
		c0.28-1.46,0.56-2.92,0.85-4.37c0.08-0.46,0.17-0.92,0.27-1.38C2.09,41.62,2.79,37.8,3.4,33.96z M13.55,32.41
		c0.06-0.16,0.11-0.31,0.14-0.47c0.01-0.01,0.02-0.02,0.02-0.03c-1.03,0.41-2,0.87-2.91,1.38c-0.49,0.29-0.94,0.61-1.34,0.95
		c-0.41,0.36-0.67,0.73-0.78,1.11c-0.02,0.05-0.03,0.11-0.02,0.16c0,0.04-0.01,0.07-0.02,0.11c0.01,0.1,0.03,0.2,0.05,0.29
		c0.06,0.19,0.16,0.34,0.29,0.45c0.3,0.22,0.69,0.29,1.16,0.22c0.45-0.07,0.85-0.26,1.21-0.57c0.36-0.31,0.68-0.66,0.94-1.06
		C12.83,34.17,13.25,33.32,13.55,32.41z"/>
	<path class="st0" d="M20.4,36.56c0.49-0.68,1.09-1.28,1.77-1.82c0.29-0.23,0.58-0.45,0.89-0.67c-0.75-0.97-1.39-2.01-1.94-3.14
		c-0.35-0.74-0.54-1.53-0.56-2.36c0-0.84,0.23-1.64,0.69-2.41c0.48-0.75,1.09-1.42,1.83-2c0.74-0.57,1.52-1.08,2.35-1.53
		c0.25-0.13,0.53-0.18,0.81-0.14c0.29,0.03,0.52,0.14,0.71,0.32c0.18,0.19,0.25,0.4,0.21,0.61c-0.04,0.21-0.18,0.4-0.42,0.54
		c-0.01,0.01-0.02,0.02-0.04,0.03L26.64,24c-0.77,0.37-1.48,0.79-2.12,1.25c-0.65,0.46-1.18,0.97-1.57,1.53
		c-0.39,0.57-0.6,1.17-0.65,1.82c-0.02,0.65,0.1,1.31,0.36,1.97c0.37,0.92,0.87,1.84,1.5,2.75c0.81-0.5,1.63-0.99,2.46-1.45
		c1.57-0.87,3.17-1.69,4.81-2.47c0.05-0.03,0.1-0.04,0.15-0.03c0.05,0.01,0.09,0.03,0.13,0.07c0.02,0.04,0.03,0.07,0.02,0.11
		c-0.01,0.04-0.04,0.06-0.09,0.08c-1.66,0.75-3.26,1.57-4.78,2.47c-0.86,0.5-1.68,1.03-2.46,1.59c0.18,0.27,0.36,0.53,0.52,0.81
		c0.45,0.66,0.8,1.38,1.07,2.16c0.11,0.41,0.11,0.83,0.02,1.26c-0.11,0.43-0.33,0.82-0.65,1.18c-0.68,0.72-1.61,1.14-2.8,1.26
		c-0.6,0.05-1.16-0.08-1.68-0.37c-0.48-0.31-0.78-0.68-0.9-1.11c0-0.01,0-0.02,0-0.04c-0.02-0.08-0.05-0.17-0.07-0.26l-0.04-0.3V38
		c0-0.08,0.01-0.16,0.02-0.23c0-0.03,0.01-0.05,0.02-0.08C19.98,37.28,20.15,36.9,20.4,36.56z M23.35,34.48l-0.02,0.01
		c-0.24,0.18-0.47,0.37-0.69,0.56c-0.64,0.55-1.17,1.13-1.59,1.75c-0.19,0.31-0.31,0.63-0.36,0.95L20.67,38l0.02,0.25l0.05,0.25
		l0.07,0.23c0.12,0.31,0.33,0.55,0.62,0.71c0.3,0.16,0.64,0.23,1.03,0.19c0.83-0.11,1.49-0.44,1.97-1c0.22-0.27,0.36-0.55,0.42-0.85
		c0.05-0.29,0.02-0.6-0.07-0.92c-0.24-0.63-0.6-1.26-1.07-1.9C23.59,34.81,23.47,34.65,23.35,34.48z"/>
	<path class="st0" d="M51.17,0.9C51.19,1,51.2,1.08,51.2,1.15c0.01,0.31,0.01,0.6-0.02,0.86c-0.05,0.54-0.11,1.06-0.2,1.58
		c-0.37,2.07-0.86,4.12-1.45,6.14c-0.77,2.74-1.66,5.45-2.68,8.14c-0.23,1.46-0.44,2.92-0.63,4.38c-0.29,2.04-0.55,4.08-0.78,6.12
		c-0.24,2.05-0.43,4.1-0.58,6.15c-0.08,1.02-0.13,2.05-0.13,3.07c0,0.11,0,0.22,0,0.34c-0.02,0.91,0.05,1.8,0.24,2.67
		c0.01,0.07-0.01,0.14-0.05,0.19c-0.05,0.05-0.12,0.09-0.22,0.11c-0.08,0.01-0.16,0-0.24-0.03c-0.07-0.03-0.12-0.08-0.14-0.14
		c-0.18-0.53-0.31-1.05-0.38-1.56c-0.08-0.52-0.14-1.04-0.16-1.56c-0.07-1.04-0.11-2.08-0.11-3.11c-0.01-2.06,0.05-4.13,0.18-6.19
		c0.1-1.35,0.2-2.7,0.33-4.04c-0.51,1.1-1.05,2.19-1.65,3.27c-1,1.93-2.25,3.77-3.74,5.52c-0.74,0.89-1.68,1.69-2.82,2.38
		c-0.6,0.34-1.31,0.56-2.12,0.66c-0.42,0.05-0.87,0.01-1.34-0.12c-0.46-0.16-0.81-0.39-1.07-0.67c-0.47-0.58-0.73-1.15-0.8-1.73
		c-0.1-0.57-0.11-1.13-0.04-1.69c0.13-1.1,0.46-2.15,0.98-3.16c0.49-1.02,1.15-1.99,1.97-2.89c0.82-0.92,1.87-1.69,3.17-2.31
		c0.65-0.3,1.36-0.51,2.13-0.62c0.39-0.05,0.77-0.06,1.16-0.06c0.15,0.01,0.3,0.02,0.47,0.04c0.05,0.01,0.1,0.01,0.15,0.01
		c0.01,0.01,0.03,0.01,0.05,0.01c0.18,0.04,0.36,0.09,0.54,0.15c0.77,0.34,1.28,0.79,1.52,1.34c0.12,0.22,0.2,0.44,0.25,0.66
		c0.52-1.14,1-2.3,1.45-3.47c0.19-1.88,0.42-3.76,0.69-5.64c0.29-2.06,0.63-4.11,1.01-6.15c0.35-2.06,0.81-4.11,1.37-6.15
		c0.14-0.51,0.31-1.02,0.51-1.53c0.1-0.26,0.2-0.52,0.33-0.79c0.06-0.13,0.13-0.26,0.22-0.41c0.01-0.01,0.02-0.02,0.02-0.03
		c0.07-0.13,0.19-0.28,0.36-0.45C48.97,0.42,48.99,0.41,49,0.4c0.05-0.05,0.11-0.1,0.19-0.15c0.08-0.05,0.19-0.11,0.33-0.16
		c0.05-0.02,0.1-0.03,0.14-0.04c0.06-0.02,0.12-0.03,0.18-0.03C49.87,0,49.89,0,49.9,0c0.02,0,0.05,0,0.07,0c0.02,0,0.05,0,0.09,0
		c0.14,0.01,0.28,0.03,0.4,0.07c0.1,0.04,0.18,0.08,0.26,0.13c0.08,0.05,0.13,0.09,0.15,0.12c0.04,0.04,0.07,0.08,0.11,0.12
		l0.05,0.07c0.04,0.08,0.06,0.15,0.08,0.21c0.02,0.05,0.03,0.11,0.05,0.15C51.17,0.87,51.17,0.89,51.17,0.9z M41.93,27.34
		c0.27-0.51,0.52-1.03,0.76-1.55c-0.06-0.16-0.13-0.32-0.2-0.48c-0.12-0.23-0.26-0.44-0.42-0.64c-0.34-0.42-0.76-0.69-1.27-0.82
		c-0.07-0.02-0.14-0.03-0.22-0.04c-0.05-0.01-0.1-0.01-0.14-0.01c-0.06,0-0.12,0-0.18,0c-0.07-0.01-0.14-0.01-0.22,0
		c-0.3,0.02-0.59,0.06-0.87,0.12c-0.57,0.13-1.1,0.33-1.59,0.6c-0.97,0.57-1.78,1.26-2.46,2.1c-0.68,0.82-1.22,1.7-1.65,2.63
		c-0.43,0.92-0.75,1.86-0.94,2.81c-0.1,0.48-0.14,0.95-0.13,1.41c0,0.47,0.1,0.87,0.31,1.22c0.18,0.32,0.53,0.48,1.05,0.49
		c0.57,0,1.13-0.12,1.7-0.36c0.54-0.23,1.05-0.53,1.52-0.89c0.47-0.35,0.9-0.73,1.28-1.15c0.77-0.83,1.45-1.71,2.03-2.63
		C40.89,29.23,41.43,28.29,41.93,27.34z"/>
	<path class="st0" d="M54.7,11.99c-0.41,1.57-0.8,3.15-1.16,4.73c-0.41,1.83-0.8,3.66-1.16,5.49c2.52,0.03,5.03-0.1,7.52-0.37
		c0.05,0,0.09,0.01,0.14,0.03c0.04,0.02,0.07,0.05,0.08,0.09c0,0.04-0.01,0.07-0.04,0.1c-0.02,0.03-0.06,0.05-0.11,0.05
		c-2.54,0.35-5.11,0.55-7.69,0.6c-0.23,1.17-0.45,2.34-0.65,3.52c-0.55,3.19-0.95,6.38-1.19,9.58c-0.13,1.61-0.16,3.21-0.07,4.79
		c0.05,0.8,0.16,1.59,0.33,2.37c0.1,0.39,0.22,0.77,0.38,1.14c0.17,0.37,0.4,0.69,0.71,0.96h0.02c0.05,0.05,0.07,0.1,0.07,0.15
		c0,0.05-0.02,0.1-0.07,0.15c-0.06,0.04-0.13,0.06-0.2,0.06s-0.14-0.02-0.2-0.06c-0.41-0.34-0.7-0.71-0.89-1.11
		c-0.19-0.39-0.34-0.79-0.45-1.19c-0.22-0.8-0.36-1.61-0.43-2.43c-0.14-1.62-0.19-3.23-0.13-4.85c0.13-3.23,0.42-6.46,0.85-9.67
		c0.14-1.13,0.31-2.26,0.49-3.38c-0.81,0.01-1.62,0.01-2.42,0.01c-0.51,0-1.01,0-1.52-0.01c-0.78,0-1.56,0-2.31,0
		c-0.13,0-0.24-0.03-0.33-0.1c-0.09-0.07-0.14-0.15-0.15-0.25c0-0.1,0.04-0.19,0.14-0.25c0.09-0.07,0.2-0.1,0.33-0.1h0.02
		c0.78,0.02,1.56,0.04,2.33,0.07c0.51,0.02,1.01,0.03,1.52,0.04c0.83,0.03,1.66,0.05,2.48,0.05c0.3-1.89,0.63-3.78,0.98-5.67
		c0.3-1.6,0.63-3.19,0.99-4.78c0.17-0.8,0.36-1.6,0.56-2.4c0.19-0.79,0.42-1.6,0.69-2.41c0.08-0.21,0.24-0.37,0.47-0.47
		c0.23-0.11,0.49-0.13,0.78-0.08c0.28,0.05,0.48,0.17,0.62,0.35c0.13,0.18,0.17,0.37,0.11,0.58v0.01v0.01h-0.02
		c-0.27,0.75-0.51,1.52-0.74,2.3C55.12,10.42,54.9,11.2,54.7,11.99z"/>
	<path class="st0" d="M56.56,30.8c-0.01-1.18,0.15-2.34,0.49-3.49c0.08-0.31,0.19-0.63,0.31-0.95c-0.06-0.24-0.11-0.48-0.14-0.73
		c-0.06-0.58-0.04-1.16,0.07-1.74c0.12-0.58,0.36-1.14,0.72-1.67c0.39-0.54,0.92-0.98,1.61-1.32c0.7-0.32,1.45-0.49,2.26-0.51
		c0.8-0.05,1.56,0.05,2.3,0.33c0.72,0.29,1.3,0.69,1.72,1.21c0.41,0.5,0.71,1.03,0.9,1.59c0.37,1.12,0.53,2.26,0.47,3.4
		c-0.04,1.13-0.22,2.26-0.54,3.37c-0.11,0.34-0.23,0.68-0.36,1.01c0.66-0.09,1.32-0.21,1.97-0.37c1.4-0.34,2.68-0.84,3.83-1.51
		c0.04-0.03,0.08-0.04,0.13-0.03c0.05,0,0.09,0.02,0.13,0.05c0.04,0.04,0.05,0.07,0.04,0.11s-0.03,0.06-0.06,0.08
		c-1.18,0.73-2.49,1.28-3.93,1.66c-0.7,0.19-1.42,0.34-2.15,0.44c-0.02,0-0.05,0-0.07,0.01c-0.02,0-0.05,0-0.07,0
		c-0.25,0.61-0.57,1.21-0.94,1.79c-0.34,0.52-0.77,1.01-1.28,1.48c-0.52,0.49-1.22,0.85-2.12,1.05c-0.24,0.05-0.48,0.06-0.71,0.05
		c-0.06,0-0.12,0-0.18,0c-0.16,0-0.31-0.01-0.45-0.03l-0.32-0.05c-0.08-0.01-0.16-0.02-0.24-0.04c-0.02-0.01-0.05-0.02-0.09-0.03
		c-0.18-0.04-0.35-0.09-0.51-0.16c-0.04-0.01-0.07-0.02-0.11-0.04c-0.8-0.37-1.38-0.86-1.75-1.45c-0.36-0.58-0.6-1.16-0.72-1.75
		C56.63,31.97,56.56,31.38,56.56,30.8z M58.02,23.99c-0.08,0.37-0.12,0.75-0.11,1.14c0.2-0.4,0.45-0.8,0.74-1.19
		c0.17-0.22,0.4-0.36,0.71-0.42c0.3-0.06,0.6-0.04,0.9,0.08c0.29,0.13,0.48,0.31,0.56,0.53c0.08,0.23,0.05,0.46-0.11,0.68
		c-0.01,0.03-0.03,0.05-0.05,0.07c-0.71,0.83-1.26,1.77-1.65,2.81c-0.05,0.13-0.1,0.26-0.14,0.4c-0.01,0.03-0.02,0.06-0.04,0.1
		c0.4,0.66,0.93,1.24,1.59,1.75c1.01,0.79,2.24,1.27,3.69,1.44c0.11,0.02,0.22,0.03,0.34,0.03c0.06,0,0.12,0,0.18,0.01
		c0.04,0,0.08,0,0.13,0c0.13,0.01,0.26,0.01,0.4,0.01c0.04-0.01,0.07-0.01,0.09-0.01c0.02,0,0.05,0,0.07,0
		c0.2-0.42,0.39-0.84,0.54-1.27c0.37-1.07,0.61-2.15,0.7-3.25c0.05-0.55,0.05-1.1,0-1.64c-0.05-0.55-0.16-1.08-0.34-1.6
		c-0.17-0.53-0.45-1.02-0.83-1.47c-0.39-0.46-0.89-0.8-1.5-1.04c-0.63-0.22-1.29-0.3-1.99-0.25c-0.7,0.04-1.34,0.19-1.92,0.47
		c-0.57,0.28-1.01,0.66-1.34,1.14C58.33,22.96,58.12,23.46,58.02,23.99z M64.32,33.15c0.3-0.42,0.57-0.86,0.81-1.32
		c-0.14,0-0.28,0-0.42,0c-0.04,0-0.07,0-0.11-0.01c-0.06,0-0.13,0-0.2,0c-0.12,0-0.24-0.01-0.36-0.03
		c-1.58-0.16-2.94-0.67-4.07-1.52c-0.53-0.4-0.98-0.85-1.36-1.34c-0.18,0.62-0.3,1.25-0.34,1.89c-0.1,1.08,0.08,2.08,0.54,3.01
		c0.25,0.45,0.62,0.79,1.1,1.04c0.04,0.02,0.07,0.04,0.11,0.05c0.08,0.04,0.17,0.07,0.27,0.1c0.02,0.01,0.05,0.02,0.07,0.03
		c0.05,0.01,0.09,0.02,0.13,0.03l0.22,0.04c0.1,0.02,0.19,0.03,0.29,0.03c0.05,0.01,0.1,0.01,0.16,0.01c0.14,0.01,0.28,0,0.4-0.01
		c0.55-0.09,1.07-0.33,1.54-0.73C63.56,34.05,63.97,33.63,64.32,33.15z"/>
	<path class="st0" d="M73.13,23.07c-0.23,1.99-0.16,4,0.22,6.03c0.17,1,0.43,1.99,0.78,2.96c0.18,0.48,0.4,0.95,0.67,1.38
		c0.13,0.21,0.28,0.4,0.45,0.56l0.13,0.1l0.13,0.07c0.01,0,0.02,0,0.04,0.01s0.02,0.01,0.03,0.01s0.01,0,0.03,0
		c0.01,0,0.02,0,0.04,0.01H75.6c0.01,0,0.04-0.01,0.08-0.03s0.09-0.04,0.14-0.07c0.1-0.07,0.19-0.16,0.27-0.25
		c0.18-0.19,0.36-0.4,0.53-0.62c0.31-0.44,0.6-0.89,0.87-1.36c0.54-0.94,1.04-1.9,1.5-2.86c0.43-0.92,0.86-1.84,1.27-2.77
		c0.02-0.05,0.05-0.1,0.07-0.15l0.69-1.47c0.12-0.25,0.25-0.49,0.38-0.73c0.04-0.11,0.1-0.21,0.18-0.32
		c0.01-0.01,0.02-0.02,0.02-0.03s0.01-0.02,0.02-0.03c0.04-0.05,0.08-0.11,0.13-0.18c0.01-0.01,0.02-0.02,0.04-0.03
		c0.01-0.02,0.04-0.04,0.07-0.07c0.01-0.02,0.04-0.04,0.07-0.06c0.01-0.01,0.03-0.02,0.06-0.03c0.03-0.01,0.06-0.01,0.1-0.01
		c0.54,0.04,0.83,0.36,0.85,0.96l0.16,0.84c0,0.03,0,0.05,0,0.08c0.1,0.52,0.19,1.05,0.27,1.58c0.08,0.61,0.16,1.22,0.22,1.82
		c0.06,0.5,0.12,1.01,0.18,1.51c0.14,1.11,0.34,2.21,0.58,3.27c0.12,0.54,0.29,1.04,0.52,1.49c0.06,0.1,0.13,0.19,0.2,0.27
		c0.04,0.04,0.07,0.06,0.09,0.08l0.02,0.03c-0.01,0-0.02,0-0.04,0h-0.02c0,0.01,0.02,0.01,0.05,0c0.07-0.02,0.17-0.06,0.29-0.12
		c0.46-0.32,0.88-0.72,1.27-1.21c0.37-0.47,0.73-0.95,1.07-1.45c0.66-1.01,1.29-2.02,1.88-3.06c0.22-0.38,0.44-0.77,0.67-1.15
		c0.37-0.65,0.75-1.29,1.14-1.93c0.31-0.52,0.65-1.03,0.99-1.53c0.33-0.48,0.73-0.95,1.21-1.38v0.01v-0.01v-0.01
		c0.01,0,0.02,0,0.02-0.01c0.01-0.01,0.02-0.02,0.04-0.03c-0.01,0.01-0.02,0.01-0.01,0.01c0.01,0,0.01-0.01,0.02-0.01
		c0.01,0,0.02-0.01,0.04-0.01c0.02,0,0.03-0.01,0.04-0.01c0.01,0,0.02-0.01,0.04-0.01c0.02-0.01,0.05-0.01,0.06,0
		c0.02,0.01,0.04,0.02,0.05,0.04c0.02,0.02,0.03,0.04,0.04,0.06c0.01,0.02,0.02,0.04,0.03,0.06s0.01,0.03,0,0.04s-0.01,0-0.01-0.01
		v0.01h-0.02v0.03l-0.02,0.03l-0.04,0.08l-0.07,0.15l-0.14,0.31l-0.25,0.62c-0.17,0.42-0.33,0.84-0.47,1.26
		c-0.29,0.85-0.46,1.7-0.51,2.56c-0.02,0.44,0.06,0.85,0.25,1.23l0.07,0.14c0.02,0.03,0.05,0.05,0.07,0.08
		c0.01,0.01,0.02,0.02,0.04,0.04c0.05,0.05,0.11,0.1,0.18,0.15c0.02,0.02,0.05,0.04,0.09,0.05c0.2,0.11,0.44,0.17,0.71,0.18
		c0.54,0,1.07-0.1,1.59-0.29c0.17-0.05,0.33-0.1,0.49-0.16c0.1-0.04,0.19-0.07,0.27-0.11l0.74-0.33h0.02
		c0.04-0.03,0.08-0.04,0.13-0.03c0.05,0.01,0.09,0.03,0.13,0.07c0.02,0.04,0.03,0.07,0.02,0.11c-0.01,0.04-0.04,0.06-0.09,0.08
		l-0.76,0.34c-0.1,0.04-0.19,0.07-0.27,0.11c-0.17,0.06-0.34,0.12-0.53,0.18c-0.54,0.2-1.13,0.31-1.75,0.32
		c-0.33-0.01-0.63-0.09-0.92-0.23c-0.02-0.03-0.05-0.05-0.09-0.07c-0.1-0.06-0.17-0.12-0.24-0.21c-0.01-0.01-0.03-0.02-0.05-0.04
		c-0.02-0.04-0.05-0.07-0.09-0.11l-0.09-0.16c-0.22-0.44-0.31-0.89-0.27-1.34c0.05-0.89,0.22-1.77,0.51-2.63
		c0.14-0.43,0.3-0.85,0.47-1.27l0.18-0.42c-0.18,0.23-0.36,0.46-0.52,0.7c-0.34,0.49-0.65,1-0.92,1.52
		c-0.59,1.03-1.15,2.08-1.66,3.14c-0.01,0.03-0.02,0.05-0.04,0.08c-0.52,1.02-1.05,2.05-1.59,3.07c-0.29,0.53-0.6,1.05-0.94,1.58
		c-0.17,0.26-0.36,0.51-0.56,0.77c-0.19,0.26-0.44,0.51-0.74,0.77c-0.16,0.13-0.37,0.24-0.63,0.34c-0.13,0.06-0.3,0.09-0.49,0.11
		c-0.19,0.02-0.39,0-0.58-0.05c-0.35-0.12-0.6-0.26-0.74-0.42c-0.17-0.15-0.3-0.29-0.4-0.44c-0.39-0.58-0.68-1.15-0.87-1.71
		c-0.4-1.13-0.69-2.26-0.89-3.38c-0.23-1.13-0.38-2.26-0.45-3.4c-0.02-0.58-0.03-1.15-0.02-1.71l0.02-0.1
		c-0.19,0.42-0.37,0.84-0.54,1.26l-1.21,2.96c-0.41,0.99-0.85,1.97-1.32,2.95c-0.24,0.49-0.51,0.98-0.81,1.47
		c-0.14,0.24-0.32,0.48-0.52,0.71c-0.11,0.12-0.24,0.24-0.38,0.36c-0.13,0.12-0.34,0.22-0.63,0.32c-0.08,0.02-0.17,0.03-0.25,0.03
		c-0.07-0.01-0.15-0.01-0.24-0.01c-0.1-0.02-0.19-0.04-0.27-0.07c-0.04-0.01-0.07-0.02-0.11-0.03c-0.11-0.05-0.21-0.1-0.31-0.15
		c-0.01-0.01-0.02-0.02-0.04-0.03c-0.07-0.05-0.14-0.1-0.2-0.15c-0.28-0.23-0.51-0.47-0.69-0.71c-0.34-0.48-0.62-0.98-0.85-1.49
		c-0.45-1-0.8-2.02-1.07-3.05c-0.57-2.06-0.84-4.17-0.81-6.32c0.01-0.22,0.12-0.4,0.32-0.55c0.2-0.15,0.45-0.22,0.75-0.22
		c0.29,0.01,0.53,0.09,0.72,0.24c0.19,0.15,0.29,0.34,0.29,0.57C73.13,23.03,73.13,23.05,73.13,23.07z"/>
	<path class="st0" d="M96.13,33.96c0.3-1.92,0.55-3.84,0.74-5.75c0.1-0.96,0.16-1.91,0.18-2.86c0.01-0.48,0-0.94-0.04-1.38
		c-0.02-0.23-0.06-0.45-0.11-0.66c-0.02-0.1-0.05-0.19-0.07-0.27c-0.01-0.03-0.02-0.05-0.04-0.07s-0.02-0.04-0.04-0.05
		c-0.15-0.17-0.19-0.36-0.14-0.55c0.05-0.19,0.19-0.34,0.41-0.45c0.24-0.11,0.49-0.14,0.73-0.1c0.25,0.04,0.45,0.14,0.61,0.31
		c0.16,0.21,0.25,0.39,0.29,0.55c0.05,0.16,0.08,0.3,0.11,0.44c0.04,0.27,0.06,0.54,0.07,0.79c0.01,0.51-0.01,1.01-0.05,1.51
		c-0.07,0.98-0.18,1.95-0.33,2.92c-0.3,1.94-0.65,3.86-1.03,5.78c-0.08,0.43-0.17,0.86-0.27,1.29c-0.02,0.14-0.05,0.28-0.07,0.42
		c0.43-1.51,0.92-3,1.45-4.49c0.06-0.16,0.12-0.33,0.18-0.49c0.28-0.78,0.58-1.55,0.92-2.32c0.39-0.93,0.86-1.85,1.41-2.75
		c0.28-0.45,0.6-0.89,0.98-1.31c0.37-0.44,0.86-0.84,1.45-1.19c0.3-0.18,0.65-0.33,1.05-0.44c0.4-0.1,0.81-0.14,1.25-0.12
		c0.47,0.03,0.9,0.15,1.3,0.36c0.37,0.21,0.67,0.44,0.89,0.7c0.42,0.51,0.7,1.03,0.85,1.55c0.16,0.52,0.27,1.04,0.33,1.55
		c0.08,1.02,0.05,2.04-0.11,3.04c-0.05,0.27-0.1,0.53-0.16,0.79c1.58-0.48,3.18-0.93,4.81-1.33c0.05-0.01,0.09,0,0.14,0.01
		c0.04,0.02,0.07,0.05,0.1,0.08c0.01,0.04,0.01,0.07-0.02,0.1s-0.06,0.06-0.11,0.08c-1.22,0.28-2.42,0.61-3.6,0.99
		c-0.47,0.15-0.94,0.3-1.41,0.45c-0.14,0.6-0.34,1.19-0.58,1.77c-0.37,0.98-0.92,1.91-1.65,2.81c-0.36,0.45-0.81,0.86-1.36,1.25
		c-0.57,0.41-1.27,0.67-2.12,0.77c-0.42,0.03-0.84-0.01-1.25-0.12c-0.42-0.12-0.77-0.32-1.05-0.59c-0.25-0.28-0.4-0.58-0.43-0.88
		c-0.02-0.15-0.03-0.29-0.02-0.42c0-0.05,0.01-0.09,0.02-0.14c0.01-0.11,0.04-0.21,0.07-0.32c0.25-0.56,0.63-1.01,1.14-1.36
		c0.48-0.36,0.99-0.69,1.54-0.96c1.1-0.55,2.23-1.02,3.4-1.42c0.01-0.01,0.03-0.01,0.05-0.01c0.01-0.01,0.02-0.01,0.04-0.01
		c0.17-0.58,0.29-1.15,0.38-1.73c0.17-0.92,0.23-1.84,0.18-2.75c-0.02-0.46-0.08-0.9-0.18-1.33c-0.11-0.44-0.28-0.82-0.51-1.15
		c-0.12-0.16-0.25-0.28-0.4-0.37c-0.06-0.05-0.13-0.08-0.2-0.1c-0.07-0.02-0.16-0.04-0.25-0.06c-0.42-0.05-0.86,0.02-1.3,0.23
		c-0.45,0.22-0.86,0.51-1.23,0.86c-0.37,0.36-0.72,0.74-1.03,1.15c-1.21,1.65-2.15,3.42-2.84,5.29c-0.71,1.85-1.31,3.73-1.81,5.62
		c-1.01,3.78-1.9,7.58-2.66,11.41c-0.01,0.07-0.02,0.15-0.04,0.22c-0.18,0.89-0.38,1.77-0.6,2.66c-0.06,0.24-0.13,0.48-0.22,0.73
		c-0.04,0.12-0.08,0.24-0.13,0.37c-0.02,0.05-0.05,0.12-0.09,0.19c-0.01,0-0.02,0-0.02,0.01c-0.01,0.03-0.04,0.06-0.07,0.11
		c-0.01,0.01-0.03,0.02-0.04,0.04c-0.02,0.02-0.03,0.03-0.05,0.04c-0.04,0.03-0.07,0.05-0.11,0.07c-0.01,0.01-0.04,0.02-0.08,0.03
		s-0.08,0.01-0.12,0.01c-0.02,0.01-0.06,0.01-0.1-0.01c-0.04-0.01-0.09-0.03-0.14-0.06c-0.05-0.02-0.09-0.05-0.12-0.07
		c-0.03-0.02-0.05-0.04-0.06-0.05c-0.01-0.01-0.01-0.02,0-0.02c0-0.02,0-0.03-0.01-0.04s-0.01-0.02-0.01-0.03v-0.01
		c0-0.02,0-0.03-0.01-0.04c-0.01-0.01-0.01-0.02-0.01-0.03v-0.01c0-0.05,0.01-0.08,0.02-0.11l0.02-0.19l0.04-0.37l0.13-0.73
		c0.28-1.46,0.56-2.92,0.85-4.37c0.08-0.46,0.17-0.92,0.27-1.38C94.83,41.62,95.52,37.8,96.13,33.96z M106.28,32.41
		c0.06-0.16,0.11-0.31,0.14-0.47c0.01-0.01,0.02-0.02,0.02-0.03c-1.03,0.41-2,0.87-2.91,1.38c-0.49,0.29-0.94,0.61-1.34,0.95
		c-0.41,0.36-0.67,0.73-0.78,1.11c-0.02,0.05-0.03,0.11-0.02,0.16c0,0.04-0.01,0.07-0.02,0.11c0.01,0.1,0.03,0.2,0.05,0.29
		c0.06,0.19,0.16,0.34,0.29,0.45c0.3,0.22,0.69,0.29,1.16,0.22c0.45-0.07,0.85-0.26,1.21-0.57c0.36-0.31,0.68-0.66,0.94-1.06
		C105.56,34.17,105.98,33.32,106.28,32.41z"/>
</g>
<g>
	<g>
		<linearGradient id="SVGID_1_" gradientUnits="userSpaceOnUse" x1="48.4279" y1="-80.8811" x2="59.519" y2="-80.8811">
			<stop  offset="0" style="stop-color:#727271"/>
			<stop  offset="0.1834" style="stop-color:#8D8D8D"/>
			<stop  offset="0.4944" style="stop-color:#B8B7B9"/>
			<stop  offset="0.5751" style="stop-color:#B2B2B3"/>
			<stop  offset="0.679" style="stop-color:#A3A2A3"/>
			<stop  offset="0.7955" style="stop-color:#898889"/>
			<stop  offset="0.9202" style="stop-color:#656564"/>
			<stop  offset="1" style="stop-color:#4A4A49"/>
		</linearGradient>
		<path class="st1" d="M59.52-80.12l-1.08,4.93l-9.12-6.87c-0.55-0.42-0.89-1.13-0.89-1.89v-0.34c0-0.02,0-0.04,0-0.06
			c0.04-1.76,1.74-2.81,3.03-1.84l2.43,1.84L59.52-80.12z"/>
		<linearGradient id="SVGID_2_" gradientUnits="userSpaceOnUse" x1="48.4279" y1="-88.5371" x2="62.5254" y2="-88.5371">
			<stop  offset="0" style="stop-color:#727271"/>
			<stop  offset="0.1834" style="stop-color:#8D8D8D"/>
			<stop  offset="0.4944" style="stop-color:#B8B7B9"/>
			<stop  offset="0.5751" style="stop-color:#B2B2B3"/>
			<stop  offset="0.679" style="stop-color:#A3A2A3"/>
			<stop  offset="0.7955" style="stop-color:#898889"/>
			<stop  offset="0.9202" style="stop-color:#656564"/>
			<stop  offset="1" style="stop-color:#4A4A49"/>
		</linearGradient>
		<path class="st2" d="M62.53-93.85c-0.55-1.01-1.76-1.43-2.74-0.69l-10.47,7.9c-0.55,0.42-0.89,1.13-0.89,1.89v0.34
			c0,0.02,0,0.04,0,0.06c0.04,1.76,1.74,2.81,3.03,1.84l2.43-1.84l7.84-5.91L62.53-93.85z"/>
		<linearGradient id="SVGID_3_" gradientUnits="userSpaceOnUse" x1="68.9275" y1="-83.0334" x2="79.8544" y2="-83.0334">
			<stop  offset="0" style="stop-color:#727271"/>
			<stop  offset="0.1834" style="stop-color:#8D8D8D"/>
			<stop  offset="0.4944" style="stop-color:#B8B7B9"/>
			<stop  offset="0.5751" style="stop-color:#B2B2B3"/>
			<stop  offset="0.679" style="stop-color:#A3A2A3"/>
			<stop  offset="0.7955" style="stop-color:#898889"/>
			<stop  offset="0.9202" style="stop-color:#656564"/>
			<stop  offset="1" style="stop-color:#4A4A49"/>
		</linearGradient>
		<path class="st3" d="M79.85-79.93v0.34c0,1.8-1.69,2.88-2.97,1.89l-2.56-1.97l-5.4-4.15l0.17-0.77L70-88.74l8.98,6.92
			C79.53-81.4,79.85-80.69,79.85-79.93z"/>
		<linearGradient id="SVGID_4_" gradientUnits="userSpaceOnUse" x1="48.0789" y1="-87.5763" x2="73.3463" y2="-78.9949">
			<stop  offset="0" style="stop-color:#B88746"/>
			<stop  offset="1" style="stop-color:#FDF5A6"/>
		</linearGradient>
		<path class="st4" d="M69.78-95.54l-1.25,5.68l-1.07,4.9l-3.81,17.4c-0.27,1.22-1.47,1.99-2.69,1.73l-0.52-0.11
			c-1.22-0.27-1.99-1.47-1.73-2.69l1.2-5.46l1.08-4.92l3.85-17.6c0.27-1.22,1.47-1.99,2.69-1.73l0.52,0.11
			C69.28-97.97,70.05-96.76,69.78-95.54z"/>
		<line class="st5" x1="62.53" y1="-93.85" x2="61.74" y2="-90.27"/>
		<linearGradient id="SVGID_5_" gradientUnits="userSpaceOnUse" x1="60.9795" y1="-82.9521" x2="66.8198" y2="-81.4026">
			<stop  offset="0" style="stop-color:#727271"/>
			<stop  offset="0.1834" style="stop-color:#8D8D8D"/>
			<stop  offset="0.4944" style="stop-color:#B8B7B9"/>
			<stop  offset="0.5751" style="stop-color:#B2B2B3"/>
			<stop  offset="0.679" style="stop-color:#A3A2A3"/>
			<stop  offset="0.7955" style="stop-color:#898889"/>
			<stop  offset="0.9202" style="stop-color:#656564"/>
			<stop  offset="1" style="stop-color:#4A4A49"/>
		</linearGradient>
		<path class="st6" d="M68.54-89.85l-1.07,4.9l-3.81,17.4c-0.27,1.22-1.47,1.99-2.69,1.73l-0.52-0.11
			c-1.22-0.27-1.99-1.47-1.73-2.69l1.2-5.46l1.08-4.92l3.85-17.6c0.27-1.22,1.47-1.99,2.69-1.73l0.52,0.11
			c1.22,0.27,1.99,1.47,1.73,2.69L68.54-89.85z"/>
		<linearGradient id="SVGID_6_" gradientUnits="userSpaceOnUse" x1="60.9795" y1="-82.9521" x2="66.8198" y2="-81.4026">
			<stop  offset="0" style="stop-color:#727271"/>
			<stop  offset="0.1834" style="stop-color:#8D8D8D"/>
			<stop  offset="0.4944" style="stop-color:#B8B7B9"/>
			<stop  offset="0.5751" style="stop-color:#B2B2B3"/>
			<stop  offset="0.679" style="stop-color:#A3A2A3"/>
			<stop  offset="0.7955" style="stop-color:#898889"/>
			<stop  offset="0.9202" style="stop-color:#656564"/>
			<stop  offset="1" style="stop-color:#4A4A49"/>
		</linearGradient>
		<path class="st7" d="M69.78-95.54l-1.25,5.68l-1.07,4.9l-3.81,17.4c-0.27,1.22-1.47,1.99-2.69,1.73l-0.52-0.11
			c-1.22-0.27-1.99-1.47-1.73-2.69l1.2-5.46l1.08-4.92l3.85-17.6c0.27-1.22,1.47-1.99,2.69-1.73l0.52,0.11
			C69.28-97.97,70.05-96.76,69.78-95.54z"/>
		<linearGradient id="SVGID_7_" gradientUnits="userSpaceOnUse" x1="65.9962" y1="-75.6336" x2="79.8544" y2="-75.6336">
			<stop  offset="0" style="stop-color:#727271"/>
			<stop  offset="0.1834" style="stop-color:#8D8D8D"/>
			<stop  offset="0.4944" style="stop-color:#B8B7B9"/>
			<stop  offset="0.5751" style="stop-color:#B2B2B3"/>
			<stop  offset="0.679" style="stop-color:#A3A2A3"/>
			<stop  offset="0.7955" style="stop-color:#898889"/>
			<stop  offset="0.9202" style="stop-color:#656564"/>
			<stop  offset="1" style="stop-color:#4A4A49"/>
		</linearGradient>
		<path class="st8" d="M79.85-79.75v0.34c0,0.76-0.33,1.48-0.87,1.89l-10.24,7.9c-1,0.77-2.24,0.28-2.74-0.82l0.74-3.38l7.59-5.85
			l2.56-1.97C78.16-82.63,79.85-81.55,79.85-79.75z"/>
	</g>
	<g>
		<linearGradient id="SVGID_8_" gradientUnits="userSpaceOnUse" x1="-26.5799" y1="-82.0853" x2="-6.2042" y2="-82.0853">
			<stop  offset="0" style="stop-color:#727271"/>
			<stop  offset="0.1834" style="stop-color:#8D8D8D"/>
			<stop  offset="0.4944" style="stop-color:#B8B7B9"/>
			<stop  offset="0.5751" style="stop-color:#B2B2B3"/>
			<stop  offset="0.679" style="stop-color:#A3A2A3"/>
			<stop  offset="0.7955" style="stop-color:#898889"/>
			<stop  offset="0.9202" style="stop-color:#656564"/>
			<stop  offset="1" style="stop-color:#4A4A49"/>
		</linearGradient>
		<path class="st9" d="M-26.58-70.37V-93.8h12.32c1.81,0,3.31,0.31,4.49,0.92c1.18,0.61,2.07,1.48,2.67,2.6c0.6,1.12,0.9,2.45,0.9,4
			c0,1.53-0.31,2.86-0.93,4c-0.62,1.14-1.55,2.02-2.78,2.65c-1.23,0.63-2.76,0.94-4.6,0.94h-7.41v8.33H-26.58z M-21.92-82.5h7.27
			c1.19,0,2.12-0.34,2.78-1.01c0.66-0.67,0.98-1.6,0.98-2.78c0-0.8-0.14-1.47-0.43-2.02c-0.29-0.55-0.7-0.97-1.25-1.26
			c-0.55-0.3-1.24-0.44-2.08-0.44h-7.27V-82.5z"/>
		<linearGradient id="SVGID_9_" gradientUnits="userSpaceOnUse" x1="-3.6973" y1="-82.0853" x2="16.9649" y2="-82.0853">
			<stop  offset="0" style="stop-color:#727271"/>
			<stop  offset="0.1834" style="stop-color:#8D8D8D"/>
			<stop  offset="0.4944" style="stop-color:#B8B7B9"/>
			<stop  offset="0.5751" style="stop-color:#B2B2B3"/>
			<stop  offset="0.679" style="stop-color:#A3A2A3"/>
			<stop  offset="0.7955" style="stop-color:#898889"/>
			<stop  offset="0.9202" style="stop-color:#656564"/>
			<stop  offset="1" style="stop-color:#4A4A49"/>
		</linearGradient>
		<path class="st10" d="M6.58-69.96c-1.36,0-2.66-0.14-3.9-0.43s-2.34-0.73-3.29-1.33c-0.96-0.6-1.71-1.35-2.26-2.25
			s-0.82-1.96-0.82-3.19c0-0.14,0.01-0.27,0.02-0.41c0.01-0.14,0.02-0.24,0.02-0.31h4.69c0,0.05-0.01,0.13-0.02,0.26
			C1-77.5,0.99-77.39,0.99-77.3c0,0.75,0.23,1.4,0.68,1.93c0.45,0.54,1.11,0.94,1.97,1.23c0.86,0.29,1.87,0.43,3.04,0.43
			c0.79,0,1.49-0.05,2.09-0.14c0.61-0.09,1.13-0.22,1.58-0.39c0.44-0.17,0.81-0.38,1.09-0.62c0.29-0.24,0.49-0.51,0.63-0.8
			c0.13-0.3,0.2-0.61,0.2-0.96c0-0.66-0.21-1.21-0.64-1.64c-0.43-0.43-1.01-0.8-1.74-1.09c-0.73-0.3-1.55-0.56-2.47-0.8
			c-0.92-0.24-1.86-0.48-2.83-0.73c-0.97-0.25-1.91-0.55-2.83-0.91c-0.92-0.35-1.74-0.78-2.47-1.28c-0.73-0.5-1.31-1.13-1.74-1.9
			c-0.43-0.76-0.64-1.68-0.64-2.75c0-1.09,0.24-2.05,0.73-2.87c0.49-0.82,1.18-1.5,2.08-2.03c0.9-0.53,1.94-0.93,3.13-1.2
			c1.19-0.26,2.49-0.39,3.9-0.39c1.31,0,2.55,0.13,3.71,0.39c1.16,0.26,2.18,0.67,3.06,1.23c0.88,0.56,1.58,1.26,2.08,2.12
			c0.5,0.85,0.75,1.87,0.75,3.06V-87h-4.62v-0.34c0-0.66-0.21-1.22-0.63-1.67c-0.42-0.46-1-0.81-1.75-1.06
			c-0.75-0.25-1.63-0.38-2.63-0.38c-1.07,0-1.99,0.1-2.76,0.29c-0.76,0.19-1.35,0.48-1.75,0.85C1.8-88.93,1.6-88.47,1.6-87.93
			c0,0.57,0.22,1.05,0.65,1.43c0.43,0.39,1.01,0.72,1.74,0.99c0.73,0.27,1.55,0.52,2.47,0.75c0.92,0.23,1.86,0.47,2.83,0.73
			c0.97,0.26,1.91,0.56,2.83,0.91c0.92,0.34,1.74,0.77,2.47,1.28c0.73,0.51,1.31,1.14,1.74,1.9c0.43,0.75,0.65,1.65,0.65,2.7
			c0,1.75-0.45,3.16-1.34,4.23c-0.9,1.07-2.13,1.84-3.69,2.32C10.37-70.2,8.58-69.96,6.58-69.96z"/>
		<linearGradient id="SVGID_10_" gradientUnits="userSpaceOnUse" x1="21.2977" y1="-82.0853" x2="43.0346" y2="-82.0853">
			<stop  offset="0" style="stop-color:#727271"/>
			<stop  offset="0.1834" style="stop-color:#8D8D8D"/>
			<stop  offset="0.4944" style="stop-color:#B8B7B9"/>
			<stop  offset="0.5751" style="stop-color:#B2B2B3"/>
			<stop  offset="0.679" style="stop-color:#A3A2A3"/>
			<stop  offset="0.7955" style="stop-color:#898889"/>
			<stop  offset="0.9202" style="stop-color:#656564"/>
			<stop  offset="1" style="stop-color:#4A4A49"/>
		</linearGradient>
		<path class="st11" d="M21.3-70.37V-93.8h9.85c2.48,0,4.61,0.42,6.37,1.26c1.77,0.84,3.13,2.12,4.08,3.84
			c0.95,1.72,1.43,3.92,1.43,6.61c0,2.66-0.48,4.86-1.43,6.59c-0.96,1.73-2.32,3.02-4.08,3.86c-1.77,0.84-3.89,1.26-6.37,1.26H21.3z
			 M25.95-74.16h5.19c1.15,0,2.16-0.16,3.04-0.48c0.88-0.32,1.62-0.79,2.22-1.42c0.6-0.63,1.05-1.41,1.36-2.36
			c0.31-0.94,0.47-2.04,0.47-3.3v-0.72c0-1.28-0.16-2.38-0.47-3.33c-0.31-0.94-0.76-1.73-1.36-2.36c-0.6-0.63-1.34-1.1-2.22-1.42
			c-0.88-0.32-1.9-0.48-3.04-0.48h-5.19V-74.16z"/>
	</g>
	<g>
		<linearGradient id="SVGID_11_" gradientUnits="userSpaceOnUse" x1="83.5983" y1="-81.6752" x2="117.0445" y2="-81.6752">
			<stop  offset="0" style="stop-color:#727271"/>
			<stop  offset="0.1834" style="stop-color:#8D8D8D"/>
			<stop  offset="0.4944" style="stop-color:#B8B7B9"/>
			<stop  offset="0.5751" style="stop-color:#B2B2B3"/>
			<stop  offset="0.679" style="stop-color:#A3A2A3"/>
			<stop  offset="0.7955" style="stop-color:#898889"/>
			<stop  offset="0.9202" style="stop-color:#656564"/>
			<stop  offset="1" style="stop-color:#4A4A49"/>
		</linearGradient>
		<path class="st12" d="M90.26-69.96L83.6-93.39h4.94l3.97,15.06c0.07,0.23,0.14,0.54,0.22,0.94c0.07,0.4,0.14,0.81,0.21,1.25
			c0.07,0.43,0.13,0.82,0.18,1.16h0.18c0.05-0.27,0.09-0.57,0.12-0.89c0.04-0.32,0.08-0.64,0.14-0.96c0.06-0.32,0.11-0.61,0.16-0.87
			c0.05-0.26,0.08-0.47,0.11-0.63l3.69-15.06h5.98l3.69,15.06c0.07,0.23,0.14,0.54,0.22,0.94c0.07,0.4,0.14,0.81,0.21,1.25
			c0.07,0.43,0.13,0.82,0.18,1.16h0.18c0.05-0.25,0.1-0.53,0.16-0.84c0.06-0.31,0.12-0.61,0.18-0.92c0.06-0.31,0.13-0.6,0.2-0.87
			c0.07-0.27,0.13-0.51,0.18-0.72l3.98-15.06h4.37l-6.7,23.43h-5.34l-3.97-15.37c-0.07-0.32-0.15-0.69-0.23-1.11
			c-0.08-0.42-0.16-0.84-0.22-1.26c-0.06-0.42-0.11-0.79-0.16-1.11h-0.14c-0.02,0.34-0.07,0.73-0.13,1.18
			c-0.06,0.44-0.12,0.87-0.2,1.28c-0.07,0.41-0.14,0.75-0.21,1.02l-3.94,15.37H90.26z"/>
		<linearGradient id="SVGID_12_" gradientUnits="userSpaceOnUse" x1="120.1232" y1="-81.6752" x2="140.499" y2="-81.6752">
			<stop  offset="0" style="stop-color:#727271"/>
			<stop  offset="0.1834" style="stop-color:#8D8D8D"/>
			<stop  offset="0.4944" style="stop-color:#B8B7B9"/>
			<stop  offset="0.5751" style="stop-color:#B2B2B3"/>
			<stop  offset="0.679" style="stop-color:#A3A2A3"/>
			<stop  offset="0.7955" style="stop-color:#898889"/>
			<stop  offset="0.9202" style="stop-color:#656564"/>
			<stop  offset="1" style="stop-color:#4A4A49"/>
		</linearGradient>
		<path class="st13" d="M120.12-69.96v-23.43h12.32c1.81,0,3.31,0.31,4.49,0.92c1.18,0.61,2.07,1.48,2.67,2.6
			c0.6,1.12,0.9,2.45,0.9,4c0,1.53-0.31,2.86-0.93,4c-0.62,1.14-1.55,2.02-2.78,2.65c-1.23,0.63-2.76,0.94-4.6,0.94h-7.41v8.33
			H120.12z M124.78-82.09h7.27c1.19,0,2.12-0.34,2.78-1.01c0.66-0.67,0.98-1.6,0.98-2.78c0-0.8-0.14-1.47-0.43-2.02
			c-0.29-0.55-0.7-0.97-1.25-1.26c-0.55-0.3-1.24-0.44-2.08-0.44h-7.27V-82.09z"/>
	</g>
</g>
</svg>
